<svg width="64" height="64" viewBox="0 0 64 64" xmlns="http://www.w3.org/2000/svg" role="img" aria-label="Palm beach icon">
  <defs>
    <linearGradient id="sky" x1="0" y1="0" x2="0" y2="1">
      <stop offset="0%" stop-color="#8ec5ff" />
      <stop offset="100%" stop-color="#d7efff" />
    </linearGradient>
    <linearGradient id="sea" x1="0" y1="0" x2="1" y2="0">
      <stop offset="0%" stop-color="#1e8bb8" />
      <stop offset="100%" stop-color="#33b2d9" />
    </linearGradient>
  </defs>

  <rect x="0" y="0" width="64" height="64" rx="12" fill="url(#sky)" />
  <rect x="0" y="36" width="64" height="12" fill="url(#sea)" />
  <rect x="0" y="48" width="64" height="16" fill="#f1d7a1" />

  <path d="M27 50 C29 44, 33 38, 36 30" stroke="#5d3b23" stroke-width="3" fill="none" stroke-linecap="round" />
  <path d="M36 30 C30 29, 25 26, 21 21" stroke="#2d7e3a" stroke-width="3" fill="none" stroke-linecap="round" />
  <path d="M36 30 C33 25, 31 20, 31 15" stroke="#2d7e3a" stroke-width="3" fill="none" stroke-linecap="round" />
  <path d="M36 30 C40 26, 45 23, 50 22" stroke="#2d7e3a" stroke-width="3" fill="none" stroke-linecap="round" />
  <path d="M36 30 C42 29, 47 31, 52 35" stroke="#2d7e3a" stroke-width="3" fill="none" stroke-linecap="round" />

  <circle cx="48" cy="14" r="5" fill="#ffc14d" />
</svg>
